<?xml version="1.0" encoding="UTF-8"?>
<svg id="Capa_1" data-name="Capa 1" xmlns="http://www.w3.org/2000/svg" viewBox="0 0 933.69 268.43">
  <defs>
    <style>
      .cls-1 {
        fill: #fff;
      }
    </style>
  </defs>
  <g>
    <path class="cls-1" d="M48.68,161.99c-10.79-.73-16.19-4.9-20.95-8.59-4.55-3.52-8.85-6.85-17.99-7.47-2.47-.17-5.05,0-5.72.09,0,0-.87,1.18-1.73,2.43-.46.67-1.12,1.86-1.12,1.86l-1.16,2.06,9.97,4.91c7.78-2.06,15.21,5.43,19.95,8.29,12.75,7.7,21.24,8.93,36.83,2.03,5.42-2.4,11.13-7.12,21.91-6.39,10.79.73,16.55,6.97,20.91,10.46,6.38,5.1,14.97,7.1,14.97,7.1l1.3-1.66c.96-1.22,2.08-3.21,2.69-4.26l.77-1.41-39.37-20.1-.1-.03c-9.41-.73-14.19,2.03-19.25,4.96-5.22,3.02-11.13,6.43-21.91,5.71Z"/>
    <path class="cls-1" d="M108.45,188.3c1.46,1.2,1.35.99,2.02,1.65,3.34-1.63,6.01-3.02,10.29-7.08-7.51-.89-10.52-3.8-14.53-6.9-4.55-3.52-8.85-6.85-17.99-7.46-9.13-.61-13.84,2.11-18.82,4.99-4.29,2.48-9.1,5.19-16.65,5.69l12.5,6.4c.1-.06.2-.12.31-.17,5.22-3.02,10.94-9.18,21.73-8.46,10.79.73,16.48,7.52,21.14,11.34Z"/>
    <path class="cls-1" d="M103.52,192.6c-.35-.41-.64-.91-1.09-1.44-3.27-3.82-6.53-7.58-15.66-8.19-7.44-.5-12.17,2.89-15.68,5.6l4.3,2.2c7.88,3.31,17.09,5.1,28.12,1.83Z"/>
    <path class="cls-1" d="M28.8,137.26c-2.84-1.88-5.38-3.25-7.15-4.69-2.82,1.08-6.59,2.49-12.46,7.79.49.05,1.01.09,1.12.1,10.78.78,15.23,4.79,20.42,7.86,9.92,5.88,19.38,8.32,31.15,4.67,3.81-1.18,12.09-6.16,17.35-7.13l-10.25-5.25c-4.62,2.51-12.59,6.13-21.51,5.25-10.25-1.01-13.64-5.27-18.67-8.6Z"/>
    <path class="cls-1" d="M29.42,130.27c1.51,1.41,2.93,2.48,4.33,3.38,4.34,2.8,9.78,6.46,16.97,6.25,5.51-.16,8.87-1.05,12.19-2.4l-7.37-3.73c-10.79-5.33-19.53-4.67-26.12-3.49Z"/>
  </g>
  <path class="cls-1" d="M318.32,72.2l-101.25,78.25h101.25l-.08,43.68-149.35.02v-74.24l99.9-76.24h-99.73V.07h149.25v72.13Z"/>
  <path class="cls-1" d="M457.97.4h48.19v117.75c0,46.54-34.7,76.28-81.24,76.28s-81.24-29.74-81.24-76.28V.4h48.19l-.09,117.34c0,19,14.04,33.05,33.05,33.05s33.05-14.04,33.05-33.05l.09-117.34Z"/>
  <path class="cls-1" d="M660.44,150.45V.07h48.51v194.03h-84.27l-44.63-150.43v150.43h-48.51V.07h84.27l44.63,150.38Z"/>
  <path class="cls-1" d="M833.99.07c56.89,0,99.7,40.94,99.7,97.04s-42.8,97.04-99.7,97.04-99.7-40.94-99.7-97.04S777.09.07,833.99.07ZM833.99,43.67c-30.04,0-53.17,22.33-53.17,53.44s23.13,53.44,53.17,53.44,53.17-22.33,53.17-53.44-23.13-53.44-53.17-53.44Z"/>
  <path class="cls-1" d="M44.69,11.47h82.07c0,23.02-18.69,41.72-41.72,41.72H2.97C2.97,30.17,21.66,11.47,44.69,11.47Z" transform="translate(21.81 -25.97) rotate(27.07)"/>
  <path class="cls-1" d="M44.69,76.2h82.07c0,23.02-18.69,41.72-41.72,41.72H2.97c0-23.02,18.69-41.72,41.72-41.72Z" transform="translate(51.27 -18.88) rotate(27.07)"/>
  <g>
    <path class="cls-1" d="M493.34,268.43c-3.25,0-6.16-.76-8.75-2.28-2.58-1.52-4.63-3.58-6.15-6.18-1.52-2.6-2.3-5.53-2.34-8.78v-28.2c0-.83.24-1.49.72-1.97.48-.48,1.13-.72,1.97-.72.79,0,1.43.24,1.91.72.48.48.72,1.14.72,1.97v16.9c1.37-1.87,3.16-3.38,5.37-4.53,2.21-1.15,4.66-1.72,7.37-1.72,3.16,0,6,.76,8.5,2.28,2.5,1.52,4.47,3.59,5.9,6.21,1.44,2.62,2.16,5.58,2.16,8.87s-.76,6.31-2.28,8.93c-1.52,2.62-3.58,4.7-6.18,6.22-2.6,1.52-5.57,2.28-8.9,2.28ZM493.34,263.69c2.33,0,4.42-.56,6.28-1.69,1.85-1.12,3.31-2.63,4.37-4.53,1.06-1.89,1.59-4.05,1.59-6.47s-.53-4.52-1.59-6.43c-1.06-1.92-2.52-3.43-4.37-4.53-1.85-1.1-3.95-1.66-6.28-1.66s-4.3.55-6.15,1.66c-1.85,1.1-3.3,2.61-4.34,4.53-1.04,1.92-1.56,4.06-1.56,6.43s.52,4.57,1.56,6.47c1.04,1.9,2.49,3.4,4.34,4.53,1.85,1.12,3.9,1.69,6.15,1.69Z"/>
    <path class="cls-1" d="M555.74,268.43c-3.37,0-6.36-.75-8.96-2.25-2.6-1.5-4.65-3.56-6.15-6.18-1.5-2.62-2.25-5.6-2.25-8.93s.75-6.37,2.25-9c1.5-2.62,3.55-4.69,6.15-6.18,2.6-1.5,5.59-2.25,8.96-2.25s6.29.75,8.87,2.25c2.58,1.5,4.62,3.56,6.12,6.18,1.5,2.62,2.27,5.62,2.31,9,0,3.33-.75,6.31-2.25,8.93-1.5,2.62-3.55,4.68-6.15,6.18-2.6,1.5-5.57,2.25-8.9,2.25ZM555.74,263.69c2.33,0,4.41-.55,6.25-1.66,1.83-1.1,3.27-2.6,4.31-4.5,1.04-1.89,1.56-4.05,1.56-6.47s-.52-4.58-1.56-6.5c-1.04-1.92-2.48-3.43-4.31-4.53-1.83-1.1-3.92-1.66-6.25-1.66s-4.43.55-6.28,1.66c-1.85,1.1-3.31,2.61-4.37,4.53-1.06,1.92-1.59,4.08-1.59,6.5s.53,4.57,1.59,6.47c1.06,1.9,2.52,3.39,4.37,4.5,1.85,1.1,3.95,1.66,6.28,1.66Z"/>
    <path class="cls-1" d="M598.72,268.12c-.71,0-1.28-.23-1.72-.69-.44-.46-.66-1-.66-1.62s.25-1.25.75-1.87l11.18-13.99,2.94,3.94-10.62,13.43c-.46.54-1.08.81-1.87.81ZM623.21,268.12c-.5,0-.92-.07-1.25-.22-.33-.15-.67-.43-1-.84l-10.81-13.56-2-1.81-10.87-13.56c-.5-.58-.75-1.19-.75-1.81s.21-1.18.62-1.66c.42-.48,1-.72,1.75-.72.79,0,1.46.29,2,.87l10.56,13.18,1.62,1.44,11.68,14.62c.58.67.84,1.32.78,1.97-.06.65-.33,1.16-.81,1.53s-.99.56-1.53.56ZM613.59,251.94l-3.44-3.31,10.56-13.56c.29-.42.63-.71,1-.87s.75-.25,1.12-.25c.79,0,1.38.24,1.78.72.4.48.58,1.05.56,1.72-.02.67-.26,1.29-.72,1.87l-10.87,13.68Z"/>
  </g>
</svg>